<svg width="16" height="10" viewBox="0 0 16 10" fill="none" xmlns="http://www.w3.org/2000/svg">
<path id="Vector" opacity="0.3" fill-rule="evenodd" clip-rule="evenodd" d="M15.6953 0.881077C15.8904 1.07285 16 1.33281 16 1.60386C16 1.8749 15.8904 2.13486 15.6953 2.32664L8.74969 9.14531C8.55434 9.33685 8.28954 9.44443 8.01345 9.44443C7.73736 9.44443 7.47256 9.33685 7.27722 9.14531L0.331596 2.32663C0.229236 2.233 0.147135 2.12008 0.0901918 1.99462C0.0332488 1.86915 0.00263018 1.73372 0.000162079 1.59639C-0.00230602 1.45905 0.0234279 1.32264 0.0758266 1.19528C0.128226 1.06793 0.206218 0.952236 0.305149 0.855113C0.404081 0.757989 0.521924 0.681423 0.651652 0.629982C0.78138 0.57854 0.920334 0.553277 1.06022 0.555701C1.20011 0.558124 1.33807 0.588183 1.46587 0.644085C1.59367 0.699988 1.70869 0.780587 1.80407 0.881077L8.01345 6.97697L14.2228 0.881077C14.4182 0.68954 14.683 0.581955 14.9591 0.581955C15.2352 0.581955 15.5 0.68954 15.6953 0.881077Z" fill="#B3B3B3"/>
</svg>
