<svg width="56" height="44" viewBox="0 0 56 44" fill="none" xmlns="http://www.w3.org/2000/svg">
<g id="_34">
<path id="Vector" fill-rule="evenodd" clip-rule="evenodd" d="M9.67704 44H34.2659C39.595 44 43.9457 39.6432 43.9457 34.3092V9.69081C43.9457 9.13197 43.8971 8.58425 43.8097 8.05042C48.5018 4.25945 52.8567 2.14502 56 2.90544C41.9764 -2.911 24.6374 27.9311 21.3095 34.0075L9.07197 15.7547L20.4962 22.4636C27.3838 13.6138 34.8335 6.8674 41.2645 3.00831C39.4978 1.15939 37.0109 0 34.2672 0H9.67704C4.35071 0 0 4.35538 0 9.69081V34.3078C0 39.6432 4.35071 43.9986 9.67704 43.9986V44Z" fill="#2196F3"/>
</g>
</svg>
