<svg width="40" height="40" viewBox="0 0 40 40" fill="none" xmlns="http://www.w3.org/2000/svg">
<g id="fi_126467">
<g id="Group">
<g id="Group_2">
<path id="Vector" d="M20.9606 6.71901L28.5772 6.71901C30.6472 6.71901 32.3267 8.45076 32.3267 10.5709L32.3267 29.4291C32.3267 31.5556 30.641 33.281 28.5772 33.281L20.8367 33.281C20.3718 33.281 20 33.663 20 34.1405C20 34.618 20.3718 35 20.8367 35L28.5772 35C31.5706 35 34 32.4979 34 29.4291L34 10.5709C34 7.49576 31.5644 5 28.5772 5L20.9606 5C20.4958 5 20.1239 5.382 20.1239 5.85951C20.1239 6.33701 20.502 6.71901 20.9606 6.71901Z" fill="#FF0000"/>
<path id="Vector_2" d="M6.24954 20.5803L11.6529 25.76C11.9866 26.08 12.5219 26.08 12.8557 25.76C13.1895 25.4401 13.1895 24.9269 12.8557 24.607L8.90082 20.8157L26.1498 20.8157C26.6221 20.8157 27 20.4535 27 20.0008C27 19.548 26.6221 19.1858 26.1498 19.1858L8.90082 19.1858L12.8557 15.3945C13.1895 15.0746 13.1895 14.5614 12.8557 14.2415C12.6919 14.0845 12.4715 14 12.2574 14C12.0433 14 11.8229 14.0785 11.6591 14.2415L6.25584 19.4212C5.91577 19.7472 5.91577 20.2664 6.24954 20.5803Z" fill="#FF0000"/>
</g>
</g>
</g>
</svg>
